<svg width="428" height="926" viewBox="0 0 428 926" fill="none" xmlns="http://www.w3.org/2000/svg">
<g clip-path="url(#clip0_28_2)">
<rect width="428" height="926" fill="white"/>
<path d="M358.43 222.088C371.874 214.706 384.589 205.449 397.127 196.727C424.076 177.749 451.267 154.645 467.021 123.77C495.966 66.9434 470.206 -13.5266 417.28 -42.6576C376.042 -65.3766 312.05 -65.7724 299.4 -6.61856C295.619 11.1152 300.92 33.5355 289.353 48.5867C276.994 64.5929 257.318 56.3075 241.006 57.0233C216.96 58.0375 204.746 83.1235 200.405 105.642C192.32 147.629 208.884 188.318 240.233 213.878C261.052 230.863 287.877 239.62 313.91 237.222C329.845 235.705 344.496 229.903 358.43 222.088Z" fill="url(#paint0_linear_28_2)"/>
<path opacity="0.52" d="M339.703 150.519C369.436 138.405 398.409 117.632 408.741 85.6374C408.811 85.5755 408.753 85.5003 408.823 85.4384C419.59 52.1743 405.97 10.8932 381.651 -11.4401C373.165 -19.1781 362.338 -24.4621 351.235 -23.8243C325.67 -22.3463 310.585 11.089 284.369 6.96326C263.346 3.65737 252.38 -17.9022 234.013 -26.4659C216.698 -34.5736 195.406 -31.334 180.039 -19.7248C124.195 22.7332 158.288 103.383 202.309 139.401C233.888 165.262 276.867 168.65 314.412 158.945C322.572 156.754 331.107 153.979 339.703 150.519Z" fill="#E0EA99"/>
<path d="M547.221 176.651C561.511 124.242 516.039 80.8059 472.717 70.5317C450.963 65.3504 428.531 65.5645 406.407 64.4962C386.331 63.5037 360.024 63.2433 345.051 46.2467C338.473 38.7084 339.42 28.9124 336.114 19.9864C326.663 -5.56636 294.056 -7.17757 274.6 4.90356C234.934 29.6096 241.389 83.4268 256.377 122.36C291.612 213.854 401.89 285.726 491.294 239.997C515.449 227.785 539.513 205.183 547.221 176.651Z" fill="url(#paint1_linear_28_2)"/>
<path d="M43.7564 748.136C32.0565 758.054 21.4466 769.663 10.9029 780.714C-11.7125 804.691 -33.7422 832.761 -43.013 866.159C-60.0264 927.622 -18.7149 1001.33 38.9629 1019.3C83.9073 1033.33 146.689 1020.93 147.271 960.446C147.435 942.315 137.763 921.405 146.091 904.347C155.005 886.195 175.939 890.384 191.779 886.425C215.138 880.629 222.096 853.609 221.852 830.677C221.39 787.921 197.033 751.36 161.212 732.575C137.42 720.09 109.386 716.867 84.3567 724.416C69.0457 729.084 55.8484 737.695 43.7564 748.136Z" fill="url(#paint2_linear_28_2)"/>
<path opacity="0.52" d="M76.3989 814.523C49.6834 832.33 25.4431 858.471 21.7089 891.885C21.6529 891.959 21.7242 892.022 21.6682 892.096C17.7608 926.841 39.3511 964.57 67.6398 981.597C77.5006 987.484 89.1646 990.5 99.9169 987.657C124.671 981.103 132.776 945.329 159.287 944.136C180.547 943.177 195.598 962.112 215.304 966.836C233.89 971.322 254.106 963.895 266.845 949.451C313.085 896.696 263.573 824.48 213.245 797.978C177.138 778.945 134.348 784.209 99.498 801.216C91.9392 804.993 84.1308 809.416 76.3989 814.523Z" fill="#F9DABE"/>
<path d="M-132.158 830.36C-135.694 884.567 -82.463 918.047 -37.9616 919.463C-15.6115 920.195 6.32604 915.506 28.2178 912.134C48.0874 909.097 73.9164 904.099 91.9826 917.763C99.9333 923.836 100.962 933.623 105.984 941.709C120.347 964.86 152.619 959.927 169.27 944.204C203.203 912.074 186.131 860.63 163.67 825.474C110.873 742.859 -11.5372 694.458 -90.0082 757.121C-111.238 773.911 -130.303 800.863 -132.158 830.36Z" fill="url(#paint3_linear_28_2)"/>
<path d="M132.6 11L125.8 27.5" stroke="url(#paint4_linear_28_2)" stroke-width="3.2226" stroke-miterlimit="10" stroke-linecap="round" stroke-linejoin="round"/>
<path d="M121 15.9L137.5 22.6" stroke="url(#paint5_linear_28_2)" stroke-width="3.2226" stroke-miterlimit="10" stroke-linecap="round" stroke-linejoin="round"/>
<path d="M126 74.0001C133.953 74.0001 140.4 67.553 140.4 59.6001C140.4 51.6472 133.953 45.2001 126 45.2001C118.047 45.2001 111.6 51.6472 111.6 59.6001C111.6 67.553 118.047 74.0001 126 74.0001Z" stroke="url(#paint6_linear_28_2)" stroke-width="6.3045" stroke-miterlimit="10"/>
<path d="M95.1 36.1C99.5735 36.1 103.2 32.4735 103.2 28C103.2 23.5265 99.5735 19.9 95.1 19.9C90.6265 19.9 87 23.5265 87 28C87 32.4735 90.6265 36.1 95.1 36.1Z" stroke="url(#paint7_linear_28_2)" stroke-width="3.5463" stroke-miterlimit="10"/>
<path d="M305.98 915.765C313.355 918.742 321.746 915.176 324.723 907.801C327.7 900.427 324.134 892.035 316.759 889.058C309.385 886.082 300.993 889.647 298.016 897.022C295.04 904.397 298.605 912.788 305.98 915.765Z" stroke="url(#paint8_linear_28_2)" stroke-width="6.3045" stroke-miterlimit="10"/>
<path d="M291.511 869.054C295.66 870.729 300.38 868.723 302.054 864.575C303.729 860.426 301.723 855.706 297.575 854.032C293.427 852.357 288.706 854.363 287.032 858.511C285.358 862.66 287.363 867.38 291.511 869.054Z" stroke="url(#paint9_linear_28_2)" stroke-width="3.5463" stroke-miterlimit="10"/>
<path d="M335.681 859.815L323.199 872.57" stroke="url(#paint10_linear_28_2)" stroke-width="3.2226" stroke-miterlimit="10" stroke-linecap="round" stroke-linejoin="round"/>
<path d="M323.09 860.017L335.883 872.405" stroke="url(#paint11_linear_28_2)" stroke-width="3.2226" stroke-miterlimit="10" stroke-linecap="round" stroke-linejoin="round"/>
<path d="M378 271C381.866 271 385 267.866 385 264C385 260.134 381.866 257 378 257C374.134 257 371 260.134 371 264C371 267.866 374.134 271 378 271Z" stroke="url(#paint12_linear_28_2)" stroke-width="3" stroke-miterlimit="10"/>
<path d="M343.863 258.955C348.938 259.922 353.858 256.613 354.854 251.564C355.849 246.514 352.542 241.638 347.468 240.671C342.394 239.704 337.473 243.013 336.478 248.063C335.482 253.112 338.789 257.989 343.863 258.955Z" fill="url(#paint13_linear_28_2)"/>
<path d="M357.442 271.294L354.692 284.366L351.941 297.438L341.711 288.521L331.648 279.636L344.461 275.449L357.442 271.294Z" stroke="url(#paint14_linear_28_2)" stroke-width="3" stroke-miterlimit="10"/>
<path d="M12.9192 707.608C9.09777 708.194 6.47415 711.766 7.0592 715.587C7.64424 719.409 11.2164 722.032 15.0379 721.447C18.8593 720.862 21.483 717.29 20.898 713.469C20.3129 709.647 16.7407 707.023 12.9192 707.608Z" stroke="url(#paint15_linear_28_2)" stroke-width="3" stroke-miterlimit="10"/>
<path d="M48.4854 714.348C43.3232 714.161 38.9602 718.177 38.7404 723.318C38.5206 728.46 42.5272 732.78 47.6894 732.968C52.8516 733.156 57.2146 729.14 57.4344 723.998C57.6542 718.857 53.6476 714.536 48.4854 714.348Z" fill="url(#paint16_linear_28_2)"/>
<path d="M33.1953 704.206L33.9361 690.869L34.6769 677.531L46.1389 684.797L57.4305 692.057L45.398 698.135L33.1953 704.206Z" stroke="url(#paint17_linear_28_2)" stroke-width="3" stroke-miterlimit="10"/>
</g>
<defs>
<linearGradient id="paint0_linear_28_2" x1="419.5" y1="44" x2="221.74" y2="67.5896" gradientUnits="userSpaceOnUse">
<stop stop-color="#E0EA99"/>
<stop offset="0.3018" stop-color="#F8B680"/>
<stop offset="1" stop-color="#E9B7D4"/>
</linearGradient>
<linearGradient id="paint1_linear_28_2" x1="251.985" y1="185.22" x2="548.045" y2="62.9985" gradientUnits="userSpaceOnUse">
<stop stop-color="#D1EBF2"/>
<stop offset="1" stop-color="#E0EA99"/>
</linearGradient>
<linearGradient id="paint2_linear_28_2" x1="-4.80404" y1="814.217" x2="205.303" y2="920.842" gradientUnits="userSpaceOnUse">
<stop offset="0.162166" stop-color="#E0EA99"/>
<stop offset="0.71985" stop-color="#97D2E0"/>
<stop offset="1" stop-color="#E9B7D4"/>
</linearGradient>
<linearGradient id="paint3_linear_28_2" x1="155.42" y1="763.003" x2="-110.268" y2="941.888" gradientUnits="userSpaceOnUse">
<stop stop-color="#F9DABE"/>
<stop offset="1" stop-color="#E9B7D4"/>
</linearGradient>
<linearGradient id="paint4_linear_28_2" x1="121.76" y1="23.4064" x2="136.725" y2="15.0917" gradientUnits="userSpaceOnUse">
<stop stop-color="#E0EA99"/>
<stop offset="1" stop-color="#97D2E0"/>
</linearGradient>
<linearGradient id="paint5_linear_28_2" x1="133.383" y1="26.7062" x2="125.068" y2="11.7411" gradientUnits="userSpaceOnUse">
<stop stop-color="#E0EA99"/>
<stop offset="1" stop-color="#97D2E0"/>
</linearGradient>
<linearGradient id="paint6_linear_28_2" x1="113.557" y1="71.9944" x2="138.44" y2="47.2028" gradientUnits="userSpaceOnUse">
<stop stop-color="#E0EA99"/>
<stop offset="1" stop-color="#97D2E0"/>
</linearGradient>
<linearGradient id="paint7_linear_28_2" x1="88.1467" y1="34.9661" x2="102.144" y2="21.0207" gradientUnits="userSpaceOnUse">
<stop stop-color="#E0EA99"/>
<stop offset="1" stop-color="#97D2E0"/>
</linearGradient>
<linearGradient id="paint8_linear_28_2" x1="295.192" y1="909.247" x2="327.546" y2="895.572" gradientUnits="userSpaceOnUse">
<stop stop-color="#E0EA99"/>
<stop offset="1" stop-color="#97D2E0"/>
</linearGradient>
<linearGradient id="paint9_linear_28_2" x1="285.488" y1="865.4" x2="303.687" y2="857.707" gradientUnits="userSpaceOnUse">
<stop stop-color="#E0EA99"/>
<stop offset="1" stop-color="#97D2E0"/>
</linearGradient>
<linearGradient id="paint10_linear_28_2" x1="320.985" y1="867.262" x2="337.974" y2="865.153" gradientUnits="userSpaceOnUse">
<stop stop-color="#E0EA99"/>
<stop offset="1" stop-color="#97D2E0"/>
</linearGradient>
<linearGradient id="paint11_linear_28_2" x1="330.528" y1="874.672" x2="328.419" y2="857.683" gradientUnits="userSpaceOnUse">
<stop stop-color="#E0EA99"/>
<stop offset="1" stop-color="#97D2E0"/>
</linearGradient>
<linearGradient id="paint12_linear_28_2" x1="371.991" y1="270.02" x2="384.087" y2="257.969" gradientUnits="userSpaceOnUse">
<stop stop-color="#E0EA99"/>
<stop offset="1" stop-color="#97D2E0"/>
</linearGradient>
<linearGradient id="paint13_linear_28_2" x1="347.468" y1="240.671" x2="343.98" y2="258.978" gradientUnits="userSpaceOnUse">
<stop stop-color="#97D2E0"/>
<stop offset="1" stop-color="#E0EA99"/>
</linearGradient>
<linearGradient id="paint14_linear_28_2" x1="345.804" y1="269.077" x2="340.805" y2="295.317" gradientUnits="userSpaceOnUse">
<stop stop-color="#97D2E0"/>
<stop offset="1" stop-color="#E0EA99"/>
</linearGradient>
<linearGradient id="paint15_linear_28_2" x1="19.0074" y1="707.668" x2="8.8743" y2="721.411" gradientUnits="userSpaceOnUse">
<stop stop-color="#E0EA99"/>
<stop offset="1" stop-color="#97D2E0"/>
</linearGradient>
<linearGradient id="paint16_linear_28_2" x1="47.6894" y1="732.968" x2="48.3667" y2="714.344" gradientUnits="userSpaceOnUse">
<stop stop-color="#97D2E0"/>
<stop offset="1" stop-color="#E0EA99"/>
</linearGradient>
<linearGradient id="paint17_linear_28_2" x1="45.0348" y1="704.637" x2="46.0056" y2="677.943" gradientUnits="userSpaceOnUse">
<stop stop-color="#97D2E0"/>
<stop offset="1" stop-color="#E0EA99"/>
</linearGradient>
<clipPath id="clip0_28_2">
<rect width="428" height="926" fill="white"/>
</clipPath>
</defs>
</svg>
